<?xml version="1.0" standalone="no"?>
<!DOCTYPE svg PUBLIC "-//W3C//DTD SVG 1.1//EN" "http://www.w3.org/Graphics/SVG/1.1/DTD/svg11.dtd">
<svg xmlns="http://www.w3.org/2000/svg" xmlns:xlink="http://www.w3.org/1999/xlink" version="1.1" x="0px" y="0px" width="1920" height="1920" viewBox="0 0 1920 1920" enable-background="new 0 0 1920 1920" xml:space="preserve">
<g id="BG">
</g>
<g id="圖層_4">
</g>
<g id="LOGO">
	<g>
		<g>
			<rect x="790.949" y="882.396" fill="#5E4EDA" width="36.567" height="154.586"/>
			<path fill="#5E4EDA" d="M509.182,1003.298c-24.052,0-43.613-19.562-43.613-43.604c0-24.052,19.562-43.614,43.613-43.614     c17.857,0,33.236,10.786,39.972,26.195l31.542-16.919c-12.787-26.624-40.002-44.992-71.514-44.992     c-43.818,0-79.33,35.512-79.33,79.33c0,43.808,35.512,79.319,79.33,79.319c31.512,0,58.727-18.378,71.523-44.991l-31.552-16.909     C542.418,992.512,527.039,1003.298,509.182,1003.298z"/>
			<path fill="#5E4EDA" d="M687.186,880.362c-43.811,0-79.326,35.517-79.326,79.327s35.516,79.326,79.326,79.326     c43.812,0,79.328-35.516,79.328-79.326S730.997,880.362,687.186,880.362z M687.186,1003.301     c-24.047,0-43.611-19.564-43.611-43.611s19.564-43.611,43.611-43.611c24.048,0,43.611,19.564,43.611,43.611     S711.233,1003.301,687.186,1003.301z"/>
			<polygon fill="#5E4EDA" points="988.098,1000.628 982.196,1000.628 928.969,883.539 928.533,882.519 864.327,882.906      864.327,1036.472 900.043,1036.472 900.043,918.234 905.508,918.234 959.081,1036.344 1023.813,1036.472 1023.813,882.906      988.098,882.906    "/>
			<polygon points="1541.256,1000.628 1535.354,1000.628 1481.69,882.519 1417.484,882.906 1417.484,1036.472 1453.2,1036.472      1453.2,918.234 1458.665,918.234 1512.318,1036.344 1576.971,1036.472 1576.971,882.906 1541.256,882.906    "/>
			<path d="M1285.158,882.905l-47.666,154.221h37.38l10.623-34.358h63.757l10.623,34.358h37.379l-47.664-154.221H1285.158z      M1296.536,967.052l14.878-48.124l0.001-0.002h11.918l0.001,0.002l14.877,48.124H1296.536z"/>
			<path d="M1215.277,943.551v-1.816c0-32.654-26.562-59.217-59.217-59.217l-95.794,0.389v153.566h35.716v-33.705h51.803     l26.98,34.186h45.492l-33.676-42.676C1203.768,983.91,1215.277,965.052,1215.277,943.551z M1095.987,918.233h60.073     c12.96,0,23.501,10.541,23.501,23.501v1.816c0,12.959-10.541,23.501-23.501,23.501h-60.073V918.233z"/>
			<g>
				<rect x="1608.73" y="883.655" width="35.065" height="151.68"/>
				<polygon points="1761.1,883.655 1716.786,883.655 1666.449,948.779 1666.236,949.054 1666.236,969.938 1716.48,1034.938       1716.786,1035.335 1761.1,1035.335 1702.479,959.476     "/>
			</g>
		</g>
		<g>
			<polygon fill="#5E4EDA" points="181.531,914.534 181.555,1005.342 226.8,960.004 226.8,914.534    "/>
			<path d="M317.338,960.004v45.269H226.8v-21.075l-67.899,66.344l0,0l0,0h113.168l45.27-45.269h45.283v-90.738L317.338,960.004z      M272.068,1050.541l45.27-45.269"/>
			<polygon fill="#5E4EDA" points="271.852,869.459 226.8,914.534 226.8,914.534 317.338,914.534 317.338,937.366 385.252,869.459         "/>
		</g>
	</g>
</g>
<g id="備註">
</g>
</svg>