<?xml version="1.0" standalone="no"?>
<!DOCTYPE svg PUBLIC "-//W3C//DTD SVG 1.1//EN" "http://www.w3.org/Graphics/SVG/1.1/DTD/svg11.dtd">
<svg xmlns="http://www.w3.org/2000/svg" width="626" height="103" viewBox="0 0 626 103" fill="none">
<path d="M14.4219 91.4987V25.4329H25.5322V14.4219H81.084V36.4438H36.6426V80.4878H81.084V102.51H25.5322V91.4987H14.4219Z" fill="black"/>
<path d="M92.1799 91.4987V25.4329H103.29V14.4219H147.732V25.4329H158.842V91.4987H147.732V102.51H103.29V91.4987H92.1799ZM114.401 36.4438V80.4878H136.621V36.4438H114.401Z" fill="black"/>
<path d="M169.938 36.4438V14.4219H236.6V36.4438H214.379V80.4878H236.6V102.51H169.938V80.4878H192.159V36.4438H169.938Z" fill="black"/>
<path d="M281.027 69.4768V58.4658H269.917V102.51H247.696V14.4219H269.917V25.4329H281.027V36.4438H292.137V14.4219H314.358V102.51H292.137V69.4768H281.027Z" fill="black"/>
<path d="M336.564 102.51V91.4987H325.454V25.4329H336.564V14.4219H392.116V36.4438H347.675V47.4548H369.895V69.4768H347.675V80.4878H392.116V102.51H336.564Z" fill="black"/>
<path d="M425.433 69.4768V102.51H403.212V25.4329H414.322V14.4219H458.764V25.4329H469.874V102.51H447.653V69.4768H425.433ZM425.433 47.4548H447.653V36.4438H425.433V47.4548Z" fill="black"/>
<path d="M480.97 58.4658V25.4329H492.08V14.4219H547.632V36.4438H503.191V47.4548H536.522V58.4658H547.632V91.4987H536.522V102.51H480.97V80.4878H525.411V69.4768H492.08V58.4658H480.97Z" fill="black"/>
<path d="M558.728 58.4658V14.4219H580.949V47.4548H603.169V14.4219H625.39V58.4658H614.28V69.4768H603.169V102.51H580.949V69.4768H569.838V58.4658H558.728Z" fill="black"/>
<path d="M9.90625 84.5826V17.6697H20.9961V6.51758H76.4452V28.8219H32.0859V73.4305H76.4452V95.7348H20.9961V84.5826H9.90625Z" fill="black"/>
<path d="M87.5205 84.5826V17.6697H98.6104V6.51758H142.97V17.6697H154.059V84.5826H142.97V95.7348H98.6104V84.5826H87.5205ZM109.7 28.8219V73.4305H131.88V28.8219H109.7Z" fill="black"/>
<path d="M165.135 28.8219V6.51758H231.674V28.8219H209.494V73.4305H231.674V95.7348H165.135V73.4305H187.314V28.8219H165.135Z" fill="black"/>
<path d="M276.019 62.2783V51.1262H264.929V95.7348H242.749V6.51758H264.929V17.6697H276.019V28.8219H287.108V6.51758H309.288V95.7348H287.108V62.2783H276.019Z" fill="black"/>
<path d="M331.453 95.7348V84.5826H320.363V17.6697H331.453V6.51758H386.902V28.8219H342.543V39.974H364.723V62.2783H342.543V73.4305H386.902V95.7348H331.453Z" fill="black"/>
<path d="M420.157 62.2783V95.7348H397.978V17.6697H409.068V6.51758H453.427V17.6697H464.517V95.7348H442.337V62.2783H420.157ZM420.157 39.974H442.337V28.8219H420.157V39.974Z" fill="black"/>
<path d="M475.592 51.1262V17.6697H486.682V6.51758H542.131V28.8219H497.772V39.974H531.041V51.1262H542.131V84.5826H531.041V95.7348H475.592V73.4305H519.951V62.2783H486.682V51.1262H475.592Z" fill="black"/>
<path d="M553.206 51.1262V6.51758H575.386V39.974H597.565V6.51758H619.745V51.1262H608.655V62.2783H597.565V95.7348H575.386V62.2783H564.296V51.1262H553.206Z" fill="black"/>
<mask id="path-3-outside-1_3113_896" maskUnits="userSpaceOnUse" x="0" y="0" width="615" height="93" fill="black">
<rect fill="white" width="615" height="93"/>
<path d="M2 79.0769V13.011H13.1104V2H68.6621V24.022H24.2207V68.0659H68.6621V90.0878H13.1104V79.0769H2Z"/>
<path d="M79.758 79.0769V13.011H90.8684V2H135.31V13.011H146.42V79.0769H135.31V90.0878H90.8684V79.0769H79.758ZM101.979 24.022V68.0659H124.199V24.022H101.979Z"/>
<path d="M157.516 24.022V2H224.178V24.022H201.957V68.0659H224.178V90.0878H157.516V68.0659H179.737V24.022H157.516Z"/>
<path d="M268.605 57.0549V46.0439H257.495V90.0878H235.274V2H257.495V13.011H268.605V24.022H279.715V2H301.936V90.0878H279.715V57.0549H268.605Z"/>
<path d="M324.142 90.0878V79.0769H313.032V13.011H324.142V2H379.694V24.022H335.253V35.0329H357.473V57.0549H335.253V68.0659H379.694V90.0878H324.142Z"/>
<path d="M413.011 57.0549V90.0878H390.79V13.011H401.9V2H446.342V13.011H457.452V90.0878H435.231V57.0549H413.011ZM413.011 35.0329H435.231V24.022H413.011V35.0329Z"/>
<path d="M468.548 46.0439V13.011H479.658V2H535.21V24.022H490.769V35.0329H524.1V46.0439H535.21V79.0769H524.1V90.0878H468.548V68.0659H512.989V57.0549H479.658V46.0439H468.548Z"/>
<path d="M546.306 46.0439V2H568.527V35.0329H590.747V2H612.968V46.0439H601.858V57.0549H590.747V90.0878H568.527V57.0549H557.416V46.0439H546.306Z"/>
</mask>
<path d="M2 79.0769V13.011H13.1104V2H68.6621V24.022H24.2207V68.0659H68.6621V90.0878H13.1104V79.0769H2Z" fill="white"/>
<path d="M79.758 79.0769V13.011H90.8684V2H135.31V13.011H146.42V79.0769H135.31V90.0878H90.8684V79.0769H79.758ZM101.979 24.022V68.0659H124.199V24.022H101.979Z" fill="white"/>
<path d="M157.516 24.022V2H224.178V24.022H201.957V68.0659H224.178V90.0878H157.516V68.0659H179.737V24.022H157.516Z" fill="white"/>
<path d="M268.605 57.0549V46.0439H257.495V90.0878H235.274V2H257.495V13.011H268.605V24.022H279.715V2H301.936V90.0878H279.715V57.0549H268.605Z" fill="white"/>
<path d="M324.142 90.0878V79.0769H313.032V13.011H324.142V2H379.694V24.022H335.253V35.0329H357.473V57.0549H335.253V68.0659H379.694V90.0878H324.142Z" fill="white"/>
<path d="M413.011 57.0549V90.0878H390.79V13.011H401.9V2H446.342V13.011H457.452V90.0878H435.231V57.0549H413.011ZM413.011 35.0329H435.231V24.022H413.011V35.0329Z" fill="white"/>
<path d="M468.548 46.0439V13.011H479.658V2H535.21V24.022H490.769V35.0329H524.1V46.0439H535.21V79.0769H524.1V90.0878H468.548V68.0659H512.989V57.0549H479.658V46.0439H468.548Z" fill="white"/>
<path d="M546.306 46.0439V2H568.527V35.0329H590.747V2H612.968V46.0439H601.858V57.0549H590.747V90.0878H568.527V57.0549H557.416V46.0439H546.306Z" fill="white"/>
<path d="M2 79.0769V13.011H13.1104V2H68.6621V24.022H24.2207V68.0659H68.6621V90.0878H13.1104V79.0769H2Z" stroke="black" stroke-width="4" mask="url(#path-3-outside-1_3113_896)"/>
<path d="M79.758 79.0769V13.011H90.8684V2H135.31V13.011H146.42V79.0769H135.31V90.0878H90.8684V79.0769H79.758ZM101.979 24.022V68.0659H124.199V24.022H101.979Z" stroke="black" stroke-width="4" mask="url(#path-3-outside-1_3113_896)"/>
<path d="M157.516 24.022V2H224.178V24.022H201.957V68.0659H224.178V90.0878H157.516V68.0659H179.737V24.022H157.516Z" stroke="black" stroke-width="4" mask="url(#path-3-outside-1_3113_896)"/>
<path d="M268.605 57.0549V46.0439H257.495V90.0878H235.274V2H257.495V13.011H268.605V24.022H279.715V2H301.936V90.0878H279.715V57.0549H268.605Z" stroke="black" stroke-width="4" mask="url(#path-3-outside-1_3113_896)"/>
<path d="M324.142 90.0878V79.0769H313.032V13.011H324.142V2H379.694V24.022H335.253V35.0329H357.473V57.0549H335.253V68.0659H379.694V90.0878H324.142Z" stroke="black" stroke-width="4" mask="url(#path-3-outside-1_3113_896)"/>
<path d="M413.011 57.0549V90.0878H390.79V13.011H401.9V2H446.342V13.011H457.452V90.0878H435.231V57.0549H413.011ZM413.011 35.0329H435.231V24.022H413.011V35.0329Z" stroke="black" stroke-width="4" mask="url(#path-3-outside-1_3113_896)"/>
<path d="M468.548 46.0439V13.011H479.658V2H535.21V24.022H490.769V35.0329H524.1V46.0439H535.21V79.0769H524.1V90.0878H468.548V68.0659H512.989V57.0549H479.658V46.0439H468.548Z" stroke="black" stroke-width="4" mask="url(#path-3-outside-1_3113_896)"/>
<path d="M546.306 46.0439V2H568.527V35.0329H590.747V2H612.968V46.0439H601.858V57.0549H590.747V90.0878H568.527V57.0549H557.416V46.0439H546.306Z" stroke="black" stroke-width="4" mask="url(#path-3-outside-1_3113_896)"/>
</svg>